<?xml version="1.0" encoding="UTF-8"?>
<svg width="30px" height="40px" viewBox="0 0 30 40" version="1.1" xmlns="http://www.w3.org/2000/svg" xmlns:xlink="http://www.w3.org/1999/xlink">
    <!-- Generator: Sketch 64 (93537) - https://sketch.com -->
    <title>noun_Lock_3021585</title>
    <desc>Created with Sketch.</desc>
    <g id="1.-Login-&amp;-2.-Startup" stroke="none" stroke-width="1" fill="none" fill-rule="evenodd">
        <g id="1.0-Picosun---Login" transform="translate(-1120.000000, -564.000000)" fill="#42586A" fill-rule="nonzero">
            <g id="noun_Lock_3021585" transform="translate(1120.000000, 564.000000)">
                <g id="Group" transform="translate(0.086400, 0.000000)">
                    <path d="M28.512,39.6 L0.864,39.6 C0.3888,39.6 0,39.2112 0,38.736 L0,16.272 C0,15.7968 0.3888,15.408 0.864,15.408 L28.512,15.408 C28.9872,15.408 29.376,15.7968 29.376,16.272 L29.376,38.736 C29.376,39.2112 28.9872,39.6 28.512,39.6 Z M1.728,37.872 L27.648,37.872 L27.648,17.136 L1.728,17.136 L1.728,37.872 Z" id="Shape"></path>
                    <path d="M23.328,17.136 L6.048,17.136 C5.5728,17.136 5.184,16.7472 5.184,16.272 L5.184,9.504 C5.184,4.25952 9.44352,0 14.688,0 C19.93248,0 24.192,4.25952 24.192,9.504 L24.192,16.272 C24.192,16.7472 23.8032,17.136 23.328,17.136 Z M6.912,15.408 L22.464,15.408 L22.464,9.504 C22.464,5.21856 18.97344,1.728 14.688,1.728 C10.40256,1.728 6.912,5.21856 6.912,9.504 L6.912,15.408 Z" id="Shape"></path>
                    <path d="M14.688,29.232 C12.30336,29.232 10.368,27.29664 10.368,24.912 C10.368,22.52736 12.30336,20.592 14.688,20.592 C17.07264,20.592 19.008,22.52736 19.008,24.912 C19.008,27.29664 17.07264,29.232 14.688,29.232 Z M14.688,22.32 C13.2624,22.32 12.096,23.4864 12.096,24.912 C12.096,26.3376 13.2624,27.504 14.688,27.504 C16.1136,27.504 17.28,26.3376 17.28,24.912 C17.28,23.4864 16.1136,22.32 14.688,22.32 Z" id="Shape"></path>
                    <path d="M14.688,34.416 C14.2128,34.416 13.824,34.0272 13.824,33.552 L13.824,28.368 C13.824,27.8928 14.2128,27.504 14.688,27.504 C15.1632,27.504 15.552,27.8928 15.552,28.368 L15.552,33.552 C15.552,34.0272 15.1632,34.416 14.688,34.416 Z" id="Path"></path>
                </g>
            </g>
        </g>
    </g>
</svg>