 <svg
    width="15"
    height="10"
    viewBox="0 0 32 27"
    xmlns="http://www.w3.org/2000/svg"
  >
    <path
      d="M17.806.35a13.33 13.33 0 00-12.862 9.79.703.703 0 101.356.37 11.915 11.915 0 0111.506-8.76c6.6 0 11.944 5.319 11.944 11.9s-5.344 11.9-11.944 11.9c-5.51 0-10.127-3.723-11.506-8.772a.703.703 0 10-1.356.372c1.543 5.649 6.723 9.8 12.862 9.8 7.355 0 13.344-5.96 13.344-13.3 0-7.34-5.99-13.3-13.344-13.3zM14.34 7.427a.7.7 0 00-.372 1.246l5.174 4.277H1.05a.7.7 0 100 1.4h18.09l-5.173 4.266a.7.7 0 10.886 1.082l6.683-5.512a.7.7 0 000-1.083l-6.683-5.512a.7.7 0 00-.514-.164z"
      fill="#FFFFFF"
      fill-rule="nonzero"
    />
  </svg>